<svg xmlns="http://www.w3.org/2000/svg" viewBox="0 0 579.91 356.59"><defs><style>.cls-1{fill:#fff;}</style></defs><title>Asset 4</title><g id="Layer_2" data-name="Layer 2"><g id="Layer_1-2" data-name="Layer 1"><path class="cls-1" d="M150.28,347.57A107.45,107.45,0,0,0,289.91,296a107.45,107.45,0,0,0,139.63,51.59,107.16,107.16,0,0,0,43,9l-.05,0A107.41,107.41,0,0,0,517.9,151.85C480.64,62.67,392.59,0,289.9,0S99.17,62.67,61.91,151.79a107.41,107.41,0,0,0,88.37,195.78Zm43-12.45a85.93,85.93,0,1,1,85.93-85.93A85.93,85.93,0,0,1,193.24,335.12Zm193.33,0a85.93,85.93,0,1,1,85.93-85.93A85.93,85.93,0,0,1,386.57,335.12ZM556.37,268a85.91,85.91,0,0,1-102.66,65,107.33,107.33,0,0,0,0-167.63,86.12,86.12,0,0,1,18.79-2.12v0A85.91,85.91,0,0,1,556.37,268ZM186.19,46.81c110.59-57.3,246.69-14.11,304,96.48a107.24,107.24,0,0,0-60.61,7.49,107.32,107.32,0,0,0-139.63,51.59,107.45,107.45,0,0,0-139.63-51.59,107.18,107.18,0,0,0-60.6-7.49A225.56,225.56,0,0,1,186.19,46.81ZM23.31,230.19A85.93,85.93,0,0,1,126.1,165.38a107.34,107.34,0,0,0,0,167.61A85.93,85.93,0,0,1,23.31,230.19Z"/></g></g></svg>
