<svg xmlns="http://www.w3.org/2000/svg" viewBox="0 0 512 512"><defs><style>.cls-1{fill:#fff;}</style></defs><title>Asset 1</title><g id="Layer_2" data-name="Layer 2"><g id="Layer_1-2" data-name="Layer 1"><path d="M241,0h30a27.65,27.65,0,0,0,3.86.82c31.24,2.07,61.21,9.5,89.27,23.26,78.81,38.63,127,101.11,143.83,187.37,1.91,9.74,2.72,19.7,4,29.55v30a34.19,34.19,0,0,0-.85,4.31c-2.49,35.71-11.94,69.54-29.22,100.83C442.11,448.24,381.63,492.39,300.6,508c-9.77,1.88-19.73,2.72-29.6,4H241a27.65,27.65,0,0,0-3.86-.82c-31.42-2.07-61.55-9.56-89.73-23.46C68.89,449,20.84,386.63,4,300.55c-1.9-9.74-2.72-19.7-4-29.55V241a34.19,34.19,0,0,0,.85-4.31C3.34,201,12.79,167.15,30.07,135.86,69.89,63.76,130.37,19.61,211.4,4,221.17,2.16,231.13,1.32,241,0ZM471,256.17c.1-118.44-96.27-215-214.71-215.17S41.24,137.13,41,255.58C40.76,374.19,137.34,471,256,471,374.38,471,470.91,374.59,471,256.17Z"/><path class="cls-1" d="M241,0c-9.87,1.32-19.83,2.16-29.6,4-81,15.57-141.51,59.72-181.33,131.82C12.79,167.15,3.34,201,.85,236.69A34.19,34.19,0,0,1,0,241V0Z"/><path class="cls-1" d="M512,241c-1.32-9.85-2.13-19.81-4-29.55-16.87-86.26-65-148.74-143.83-187.37C336.07,10.32,306.1,2.89,274.86.82A27.65,27.65,0,0,1,271,0H512Z"/><path class="cls-1" d="M0,271c1.32,9.85,2.14,19.81,4,29.55C20.84,386.63,68.89,449,147.41,487.72c28.18,13.9,58.31,21.39,89.73,23.46A27.65,27.65,0,0,1,241,512H0Z"/><path class="cls-1" d="M271,512c9.87-1.32,19.83-2.16,29.6-4,81-15.57,141.51-59.72,181.33-131.82,17.28-31.29,26.73-65.12,29.22-100.83A34.19,34.19,0,0,1,512,271V512Z"/><path class="cls-1" d="M471,256.17C470.91,374.59,374.38,471,256,471c-118.62,0-215.2-96.81-215-215.42C41.24,137.13,137.85,40.83,256.29,41S471.1,137.73,471,256.17ZM336.39,254c0-19.82,0-39.64,0-59.46,0-13.48.32-27-.4-40.45-.83-15.33-16.12-25.92-31-22.26-12.53,3.09-19.81,13.11-19.82,27.58q0,94.44,0,188.87a43.73,43.73,0,0,0,.57,6.95,25.43,25.43,0,0,0,34.77,19.63c10.3-4.15,15.85-13.25,15.87-26.42Q336.45,301.17,336.39,254Zm-153.51-.14q0,27.74,0,55.46c0,14.49-.27,29,.19,43.47.47,14.8,14.19,25.75,28.75,23.6,13.78-2,22.17-12.33,22.17-27.47q0-94.94,0-189.87a46.15,46.15,0,0,0-.19-5,25.51,25.51,0,0,0-34.59-21.19c-10.41,4-16.31,13.08-16.33,25.56Q182.83,206.1,182.88,253.81Z"/><path d="M336.39,254q0,47.22,0,94.44c0,13.17-5.57,22.27-15.87,26.42a25.43,25.43,0,0,1-34.77-19.63,43.73,43.73,0,0,1-.57-6.95q0-94.44,0-188.87c0-14.47,7.29-24.49,19.82-27.58,14.89-3.66,30.18,6.93,31,22.26.72,13.45.37,27,.4,40.45C336.42,214.31,336.39,234.13,336.39,254Z"/><path d="M182.89,253.81q0-47.71,0-95.43c0-12.48,5.92-21.57,16.33-25.56A25.51,25.51,0,0,1,233.82,154a46.15,46.15,0,0,1,.19,5q0,94.94,0,189.87c0,15.14-8.39,25.44-22.17,27.47-14.56,2.15-28.28-8.8-28.75-23.6-.46-14.48-.18-29-.19-43.47Q182.86,281.53,182.89,253.81Z"/></g></g></svg>
