<?xml version="1.0" encoding="utf-8"?>
<!-- Generator: Adobe Illustrator 22.1.0, SVG Export Plug-In . SVG Version: 6.00 Build 0)  -->
<svg version="1.1" id="Layer_1" xmlns="http://www.w3.org/2000/svg" xmlns:xlink="http://www.w3.org/1999/xlink" x="0px" y="0px"
	 viewBox="0 0 528 817" style="enable-background:new 0 0 528 817;" xml:space="preserve">
<style type="text/css">
	.st0{fill:#FFFFFF;}
</style>
<g>
	<g id="XMLID_1_">
		<g>
			<path class="st0" d="M373.1,300.3c0,34.1,0,68.3,0,102.4c-0.6-4.2-0.9-8.4-1.7-12.6c-6.6-34.4-25.4-60.1-56-77.1
				c-13.4-7.4-27.8-11.4-43.1-12.4c-0.5,0-1.1-0.2-1.6-0.4C304.8,300.3,339,300.3,373.1,300.3z"/>
			<path class="st0" d="M272.3,300.6c15.3,1,29.7,5.1,43.1,12.4c30.6,16.9,49.4,42.6,56,77.1c0.8,4.1,1.1,8.4,1.7,12.6
				c0,4.2,0,8.5,0,12.8c-0.1,0.6-0.3,1.2-0.4,1.8c-1.1,15.2-5,29.6-12.4,42.9c-20,35.6-50.6,55-91.4,57.5c-2.2,0.1-4.4,0.2-6.5,0.2
				c-17.2,0-33.8-4.3-49-12.8c-35.7-20-55.1-50.6-57.6-91.4c-0.1-2.2-0.2-4.3-0.2-6.5c0-17.3,4.4-33.8,12.8-49.1
				c16.9-30.7,42.6-49.4,77.1-56.1c4.1-0.8,8.4-1.2,12.6-1.7c4.2,0,8.5,0,12.7,0C271.2,300.4,271.8,300.6,272.3,300.6z M264.4,500.4
				c50.3-0.1,91.3-41.1,91.2-91.4c0-50.3-41.1-91.3-91.4-91.3c-50.3,0-91.3,41-91.3,91.3C172.9,459.5,214,500.5,264.4,500.4z"/>
			<path class="st0" d="M355.7,409c0,50.3-40.9,91.4-91.2,91.4c-50.4,0.1-91.5-41-91.5-91.4c0-50.3,41-91.3,91.3-91.3
				C314.6,317.7,355.6,358.7,355.7,409z M276.9,451.2c1.1,6.9,8.3,11,14.8,8.3c4.4-1.8,6.7-5.6,6.7-11.2c0-13.4,0-26.8,0-40.1
				c0-8.4,0-16.8,0-25.3c0-5.7,0.1-11.5-0.2-17.2c-0.4-6.5-6.9-11-13.2-9.5c-5.3,1.3-8.4,5.6-8.4,11.7c0,26.8,0,53.5,0,80.2
				C276.7,449.2,276.8,450.2,276.9,451.2z M233.2,431.5c0,6.2-0.1,12.5,0.1,18.7c0.2,6.3,6,10.9,12.2,10c5.9-0.9,9.4-5.2,9.4-11.7
				c0-26.9,0-53.8,0-80.7c0-0.7,0-1.4-0.1-2.1c-0.8-7-7.8-11.5-14.5-9.1c-4.5,1.6-7.1,5.6-7.1,10.9c0,13.5,0,27,0,40.6
				C233.2,415.9,233.2,423.7,233.2,431.5z"/>
			<path class="st0" d="M285.1,356.3c6.3-1.6,12.8,2.9,13.2,9.5c0.3,5.7,0.2,11.5,0.2,17.2c0,8.4,0,16.8,0,25.3
				c0,13.4,0,26.8,0,40.1c0,5.6-2.4,9.5-6.7,11.2c-6.5,2.6-13.6-1.4-14.8-8.3c-0.2-1-0.2-2-0.2-3c0-26.8,0-53.5,0-80.2
				C276.7,361.9,279.8,357.6,285.1,356.3z"/>
			<path class="st0" d="M268.9,517.7c40.8-2.5,71.4-21.9,91.4-57.5c7.5-13.2,11.4-27.7,12.4-42.9c0-0.6,0.2-1.2,0.4-1.8
				c0,34.3,0,68.5,0,102.8c-36.9,0-73.8,0-110.8,0v-0.4C264.5,517.9,266.7,517.8,268.9,517.7z"/>
			<path class="st0" d="M155.7,413.7c2.5,40.8,21.9,71.4,57.6,91.4c15.3,8.5,31.8,12.8,49,12.8v0.4c-35.7,0-71.5,0-107.2,0
				c0-37,0-74.1,0-111.1h0.4C155.5,409.3,155.6,411.5,155.7,413.7z"/>
			<path class="st0" d="M245.4,302c-34.5,6.6-60.2,25.4-77.1,56.1c-8.4,15.4-12.8,31.9-12.8,49.1h-0.4c0-35.6,0-71.3,0-106.9
				c34.3,0,68.5,0,102.8,0C253.7,300.9,249.5,301.2,245.4,302z"/>
			<path class="st0" d="M245.5,460.2c-6.2,0.9-12-3.7-12.2-10c-0.2-6.2-0.1-12.5-0.1-18.7c0-7.8,0-15.6,0-23.3c0-13.5,0-27,0-40.6
				c0-5.4,2.6-9.3,7.1-10.9c6.7-2.4,13.7,2,14.5,9.1c0.1,0.7,0.1,1.4,0.1,2.1c0,26.9,0,53.8,0,80.7
				C254.9,455,251.4,459.4,245.5,460.2z"/>
		</g>
		<g>
		</g>
	</g>
</g>
</svg>
