<?xml version="1.0" encoding="UTF-8"?>
<svg width="74px" height="71px" viewBox="0 0 74 71" version="1.1" xmlns="http://www.w3.org/2000/svg" xmlns:xlink="http://www.w3.org/1999/xlink">
    <!-- Generator: Sketch 50.2 (55047) - http://www.bohemiancoding.com/sketch -->
    <title>32328</title>
    <desc>Created with Sketch.</desc>
    <defs></defs>
    <g id="Welcome" stroke="none" stroke-width="1" fill="none" fill-rule="evenodd">
        <g id="Desktop-HD" transform="translate(-1145.000000, -422.000000)" fill="#000000" fill-rule="nonzero">
            <g id="Group-5" transform="translate(1059.000000, 370.000000)">
                <g id="32328" transform="translate(86.000000, 52.000000)">
                    <path d="M47.851906,59.2831315 L47.851906,32.7187617 L63.4915977,30.1820636 C61.0006371,16.9747335 49.4140729,6.98284285 35.4873581,6.98284285 C19.7429932,6.98284285 6.98037038,19.7499863 6.98037038,35.4999279 C6.98037038,51.2500137 19.7429932,64.0171571 35.4873581,64.0171571 C37.0144899,64.0171571 38.511921,63.893553 39.9734518,63.6624982 C41.1179355,61.7621381 43.1708839,60.2370615 45.7777635,59.5850026 C46.4663569,59.4145241 47.1617266,59.3121215 47.851906,59.2831315 Z M40.7249067,9.31026483 L37.6706432,22.6962945 L34.6162356,22.6962945 L32.4345364,9.31026483 C35.6348521,7.70917966 40.7249067,9.31026483 40.7249067,9.31026483 Z M35.4873581,46.0871955 C29.6420999,46.0871955 24.9038392,41.3472565 24.9038392,35.4999279 C24.9038392,29.6525993 29.6420999,24.9128045 35.4873581,24.9128045 C41.3326163,24.9128045 46.070877,29.6527435 46.070877,35.4999279 C46.070877,41.3472565 41.3326163,46.0871955 35.4873581,46.0871955 Z M35.4873581,27.4275798 C31.0367322,27.4275798 27.4178683,31.0477256 27.4178683,35.4999279 C27.4178683,39.9516975 31.0367322,43.5724202 35.4873581,43.5724202 C39.9376957,43.5724202 43.556848,39.9516975 43.556848,35.4999279 C43.556848,31.0477256 39.9375515,27.4275798 35.4873581,27.4275798 Z M35.4873581,41.2661999 C32.3091017,41.2661999 29.7235604,38.6797427 29.7235604,35.4999279 C29.7235604,32.3205457 32.3099668,29.7340886 35.4873581,29.7340886 C38.6660471,29.7340886 41.2498583,32.3205457 41.2498583,35.4999279 C41.2498583,38.679887 38.6660471,41.2661999 35.4873581,41.2661999 Z M39.1382295,68.5822907 C39.2763519,69.3478578 39.5797021,70.0604929 40.0177144,70.700725 C38.5332593,70.8908187 37.0231405,71 35.4883674,71 C15.9199735,71 0,55.0743876 0,35.4999279 C0,15.9256124 15.9199735,0 35.4873581,0 C52.8568957,0 67.3427322,12.5531077 70.3798385,29.0644338 L66.9345647,29.6240419 C64.1673593,14.7722138 51.1234455,3.49192623 35.4873581,3.49192623 C17.844171,3.49192623 3.49068981,17.8506357 3.49068981,35.4999279 C3.49068981,53.1493643 17.8443152,67.5080738 35.4873581,67.5080738 C36.6688956,67.5080738 37.8344293,67.4389881 38.9830942,67.3136532 C38.9933308,67.7348016 39.0393235,68.1584019 39.1382295,68.5822907 Z M74,30.9786399 L74,61.7578112 C74,64.306913 72.1004569,66.340108 69.1373138,67.0885119 C65.8843733,67.8950399 62.7440356,66.5326536 62.1201781,64.0383588 C61.4964647,61.5397371 63.6268366,58.8602523 66.878912,58.0460801 C68.3489494,57.6829117 69.7951973,57.7570454 71.006147,58.183386 L71.006147,39.6405958 L54.3722048,42.6815182 L54.2955022,65.7500675 L54.2921861,65.7500675 C54.2776242,67.9351356 52.3081548,70.0792426 49.4754927,70.7807721 C46.2627778,71.589752 42.8947833,70.0594833 42.5336178,67.769705 C41.9158157,65.299208 44.0215332,62.6469825 47.2428988,61.8397332 C48.6924628,61.479161 50.108866,61.5517081 51.2993424,61.9685297 L51.2993424,34.6619579 L74,30.9786399 Z" id="Shape"></path>
                </g>
            </g>
        </g>
    </g>
</svg>